<?xml version="1.0" encoding="UTF-8" standalone="no"?>
<!-- Generator: Adobe Illustrator 12.0.1, SVG Export Plug-In . SVG Version: 6.00 Build 51448)  -->

<svg
   version="1.0"
   id="Layer_1"
   width="436.505"
   height="152.503"
   viewBox="0 0 436.505 152.503"
   overflow="visible"
   enable-background="new 0 0 436.505 152.503"
   xml:space="preserve"
   sodipodi:docname="official_logo.svg"
   inkscape:version="1.1.2 (0a00cf5339, 2022-02-04)"
   xmlns:inkscape="http://www.inkscape.org/namespaces/inkscape"
   xmlns:sodipodi="http://sodipodi.sourceforge.net/DTD/sodipodi-0.dtd"
   xmlns="http://www.w3.org/2000/svg"
   xmlns:svg="http://www.w3.org/2000/svg"><defs
   id="defs21"><inkscape:path-effect
     effect="spiro"
     id="path-effect1792"
     is_visible="true"
     lpeversion="1" /><inkscape:path-effect
     effect="spiro"
     id="path-effect1565"
     is_visible="true"
     lpeversion="1" /><inkscape:path-effect
     effect="spiro"
     id="path-effect1561"
     is_visible="true"
     lpeversion="1" /><inkscape:path-effect
     effect="spiro"
     id="path-effect1557"
     is_visible="true"
     lpeversion="1" /><inkscape:path-effect
     effect="spiro"
     id="path-effect1553"
     is_visible="true"
     lpeversion="1" /><inkscape:path-effect
     effect="spiro"
     id="path-effect1549"
     is_visible="true"
     lpeversion="1" /><inkscape:path-effect
     effect="spiro"
     id="path-effect1545"
     is_visible="true"
     lpeversion="1" /><inkscape:path-effect
     effect="spiro"
     id="path-effect1300"
     is_visible="true"
     lpeversion="1" /><rect
     x="299.23731"
     y="40.336064"
     width="196.99008"
     height="107.87552"
     id="rect2578" /><rect
     x="299.2373"
     y="40.336063"
     width="196.99008"
     height="107.87552"
     id="rect2578-5" /><filter
     inkscape:collect="always"
     style="color-interpolation-filters:sRGB"
     id="filter2177"
     x="-0.010928096"
     y="-0.052190181"
     width="1.0146404"
     height="1.1043366"><feGaussianBlur
       inkscape:collect="always"
       stdDeviation="0.13476894"
       id="feGaussianBlur2179" /></filter><filter
     inkscape:collect="always"
     style="color-interpolation-filters:sRGB"
     id="filter2185"
     x="-0.033959237"
     y="-0.04709479"
     width="1.046867"
     height="1.0560752"><feGaussianBlur
       inkscape:collect="always"
       stdDeviation="0.13476894"
       id="feGaussianBlur2187" /></filter><filter
     inkscape:collect="always"
     style="color-interpolation-filters:sRGB"
     id="filter2189"
     x="-0.018874927"
     y="-0.17113848"
     width="1.040142"
     height="1.3736417"><feGaussianBlur
       inkscape:collect="always"
       stdDeviation="0.13476894"
       id="feGaussianBlur2191" /></filter><filter
     inkscape:collect="always"
     style="color-interpolation-filters:sRGB"
     id="filter2193"
     x="-0.047371315"
     y="-0.0263474"
     width="1.0764813"
     height="1.0457337"><feGaussianBlur
       inkscape:collect="always"
       stdDeviation="0.13476894"
       id="feGaussianBlur2195" /></filter><filter
     inkscape:collect="always"
     style="color-interpolation-filters:sRGB"
     id="filter2197"
     x="-0.017429902"
     y="-0.085817295"
     width="1.0337318"
     height="1.2000599"><feGaussianBlur
       inkscape:collect="always"
       stdDeviation="0.13476894"
       id="feGaussianBlur2199" /></filter><filter
     inkscape:collect="always"
     style="color-interpolation-filters:sRGB"
     id="filter2201"
     x="-0.036490765"
     y="-0.01820739"
     width="1.0512038"
     height="1.0780164"><feGaussianBlur
       inkscape:collect="always"
       stdDeviation="0.13476894"
       id="feGaussianBlur2203" /></filter></defs><sodipodi:namedview
   id="namedview19"
   pagecolor="#ffffff"
   bordercolor="#666666"
   borderopacity="1.0"
   inkscape:pageshadow="2"
   inkscape:pageopacity="0.0"
   inkscape:pagecheckerboard="0"
   showgrid="false"
   inkscape:zoom="4"
   inkscape:cx="229.58903"
   inkscape:cy="73.877128"
   inkscape:window-width="2560"
   inkscape:window-height="1360"
   inkscape:window-x="0"
   inkscape:window-y="0"
   inkscape:window-maximized="1"
   inkscape:current-layer="g16" />
<g
   id="g16"
   transform="matrix(0.51002865,0,0,0.49972085,35.958504,38.459969)">
	<g
   id="g14">






	</g>
<g
   aria-label="API"
   transform="matrix(1.9606742,0,0,2.0011172,-247.5082,-85.861514)"
   id="text2576"
   style="font-size:40px;line-height:1.25;white-space:pre;shape-inside:url(#rect2578);fill:#012d09" /><g
   id="g4431"><g
     aria-label="adapter"
     transform="matrix(1.9606742,0,0,2.0011172,-260.23005,-24.993771)"
     id="text2576-7"
     style="font-size:40px;line-height:1.25;white-space:pre;shape-inside:url(#rect2578-5);fill:#4f6252;fill-opacity:1"><path
       id="path873"
       style="font-weight:bold;font-size:26.6667px;-inkscape-font-specification:'sans-serif, Bold';text-align:center;text-anchor:middle;fill:#4f6252;fill-opacity:1"
       d="m 451.22989,65.61457 q -0.61198,-0.286459 -1.22396,-0.416667 -0.59896,-0.14323 -1.21094,-0.14323 -1.79688,0 -2.77344,1.158856 -0.96354,1.145835 -0.96354,3.294275 v 6.718758 h -4.66147 V 61.643211 h 4.66147 v 2.395836 q 0.89844,-1.432293 2.05729,-2.083336 1.17188,-0.664063 2.79948,-0.664063 0.23438,0 0.50782,0.02604 0.27343,0.01302 0.79427,0.07813 z m -14.362,3.281254 v 1.328127 h -10.89845 q 0.16927,1.640627 1.1849,2.46094 1.01562,0.820314 2.83854,0.820314 1.47136,0 3.00782,-0.429688 1.54948,-0.442709 3.17709,-1.328127 v 3.593755 q -1.65365,0.625001 -3.3073,0.937501 -1.65365,0.325521 -3.30729,0.325521 -3.95834,0 -6.15887,-2.005211 -2.1875,-2.018231 -2.1875,-5.651049 0,-3.567712 2.14844,-5.611986 2.16146,-2.044273 5.93751,-2.044273 3.4375,0 5.4948,2.070315 2.07031,2.070315 2.07031,5.533861 z m -4.79167,-1.549481 q 0,-1.328127 -0.78125,-2.135419 -0.76823,-0.820314 -2.01823,-0.820314 -1.35417,0 -2.20053,0.76823 -0.84635,0.755209 -1.05469,2.187503 z m -17.42189,-9.843762 v 4.14063 h 4.80469 v 3.333337 h -4.80469 v 6.184904 q 0,1.015626 0.40364,1.38021 0.40365,0.351563 1.60157,0.351563 h 2.39584 v 3.333337 h -3.99741 q -2.76042,0 -3.91927,-1.145834 -1.14584,-1.158856 -1.14584,-3.919276 v -6.184904 h -2.31771 v -3.333337 h 2.31771 v -4.14063 z m -19.51826,16.614604 v 7.65626 h -4.66146 V 61.643211 h 4.66146 v 2.135419 q 0.96354,-1.276043 2.13542,-1.875002 1.17188,-0.61198 2.69532,-0.61198 2.69531,0 4.42708,2.14844 1.73178,2.135419 1.73178,5.507819 0,3.372401 -1.73178,5.520841 -1.73177,2.135419 -4.42708,2.135419 -1.52344,0 -2.69532,-0.598959 -1.17188,-0.61198 -2.13542,-1.888023 z m 3.09896,-9.440116 q -1.4974,0 -2.30469,1.106772 -0.79427,1.093751 -0.79427,3.164066 0,2.070316 0.79427,3.177088 0.80729,1.093751 2.30469,1.093751 1.4974,0 2.27865,-1.093751 0.79427,-1.093752 0.79427,-3.177088 0,-2.083335 -0.79427,-3.177087 -0.78125,-1.093751 -2.27865,-1.093751 z m -19.21877,4.986985 q -1.45833,0 -2.20052,0.494792 -0.72917,0.494793 -0.72917,1.458336 0,0.885417 0.58594,1.393231 0.59896,0.494792 1.65365,0.494792 1.3151,0 2.21354,-0.937501 0.89844,-0.950522 0.89844,-2.369795 v -0.533855 z m 7.12241,-1.757815 v 8.320323 h -4.70053 v -2.161461 q -0.9375,1.328127 -2.10938,1.940107 -1.17188,0.598959 -2.85156,0.598959 -2.26563,0 -3.68491,-1.315106 -1.40625,-1.328126 -1.40625,-3.437504 0,-2.565107 1.75782,-3.763026 1.77083,-1.197918 5.54688,-1.197918 h 2.7474 v -0.364584 q 0,-1.106772 -0.8724,-1.614585 -0.8724,-0.520834 -2.72136,-0.520834 -1.49739,0 -2.78646,0.29948 -1.28906,0.299479 -2.39583,0.898438 v -3.554692 q 1.49739,-0.364584 3.00781,-0.546875 1.51042,-0.195313 3.02084,-0.195313 3.94532,0 5.69011,1.562502 1.75782,1.549481 1.75782,5.052089 z M 363.31311,63.77863 v -7.81251 h 4.68751 v 20.260442 h -4.68751 v -2.109377 q -0.96354,1.289064 -2.12239,1.888023 -1.15886,0.598959 -2.6823,0.598959 -2.69532,0 -4.42709,-2.135419 -1.73177,-2.14844 -1.73177,-5.520841 0,-3.3724 1.73177,-5.507819 1.73177,-2.14844 4.42709,-2.14844 1.51042,0 2.66927,0.61198 1.17188,0.598959 2.13542,1.875002 z m -3.07292,9.440116 q 1.4974,0 2.27865,-1.093751 0.79427,-1.093752 0.79427,-3.177088 0,-2.083335 -0.79427,-3.177087 -0.78125,-1.093751 -2.27865,-1.093751 -1.48437,0 -2.27865,1.093751 -0.78125,1.093752 -0.78125,3.177087 0,2.083336 0.78125,3.177088 0.79428,1.093751 2.27865,1.093751 z m -18.30731,-3.554692 q -1.45834,0 -2.20052,0.494792 -0.72917,0.494793 -0.72917,1.458336 0,0.885417 0.58594,1.393231 0.59896,0.494792 1.65364,0.494792 1.31511,0 2.21355,-0.937501 0.89844,-0.950522 0.89844,-2.369795 v -0.533855 z m 7.1224,-1.757815 v 8.320323 h -4.70052 v -2.161461 q -0.9375,1.328127 -2.10938,1.940107 -1.17188,0.598959 -2.85157,0.598959 -2.26562,0 -3.6849,-1.315106 -1.40625,-1.328126 -1.40625,-3.437504 0,-2.565107 1.75782,-3.763026 1.77083,-1.197918 5.54688,-1.197918 h 2.7474 v -0.364584 q 0,-1.106772 -0.8724,-1.614585 -0.8724,-0.520834 -2.72136,-0.520834 -1.4974,0 -2.78646,0.29948 -1.28906,0.299479 -2.39584,0.898438 v -3.554692 q 1.4974,-0.364584 3.00782,-0.546875 1.51042,-0.195313 3.02084,-0.195313 3.94532,0 5.69011,1.562502 1.75781,1.549481 1.75781,5.052089 z m 31.7438,-40.536686 h 5.01303 v 19.440128 h -5.01303 z m -19.5443,0 h 8.32033 q 3.71094,0 5.69011,1.653648 1.99219,1.640627 1.99219,4.687506 0,3.059899 -1.99219,4.713547 -1.97917,1.640627 -5.69011,1.640627 h -3.3073 v 6.7448 h -5.01303 z m 5.01303,3.632817 v 5.429694 h 2.77344 q 1.45834,0 2.25261,-0.703126 0.79427,-0.716146 0.79427,-2.018231 0,-1.302085 -0.79427,-2.005211 -0.79427,-0.703126 -2.25261,-0.703126 z m -13.85418,12.26564 h -7.83856 l -1.23698,3.541671 h -5.03906 l 7.20053,-19.440128 h 5.97657 l 7.20053,19.440128 h -5.03907 z m -6.58855,-3.606775 h 5.32552 L 348.49435,31.92685 Z M 300.2478,30.90518 c 12.1749,0 19.60703,7.514303 19.60703,19.67551 0,12.472033 -7.74733,20.295662 -20.08135,20.295662 -12.17592,0 -19.6866,-7.514302 -19.6866,-19.598052 5.1e-4,-12.54999 7.74887,-20.37312 20.16092,-20.37312 z m -0.23818,30.365038 c 4.66523,0 7.43265,-3.795879 7.43265,-10.380201 0,-6.506366 -2.68836,-10.379702 -7.35207,-10.379702 -4.82334,0 -7.59126,3.796379 -7.59126,10.379702 5.1e-4,6.584822 2.76792,10.380201 7.51068,10.380201 z M 238.57514,76.37578 c 4.26996,2.168789 8.5389,3.175227 13.045,3.175227 7.9845,0 11.38435,-3.175227 11.38435,-10.766986 0,-0.07746 0,-0.154913 0,-0.23237 -2.37163,1.161351 -4.74378,1.626591 -7.90544,1.626591 -10.67337,0 -17.47358,-6.894148 -17.47358,-17.816048 0,-13.556927 10.04144,-21.224643 27.8292,-21.224643 5.21861,0 10.04144,0.541697 15.89198,1.703548 l -4.16897,8.604693 c -3.24175,-0.619653 -0.25961,-0.08295 -2.70928,-0.315323 v 1.239807 l 0.1576,5.034188 0.0786,6.507365 c 0.079,1.626092 0.079,3.253183 0.15862,4.879774 0,1.471678 0,2.169288 0,3.253683 0,10.225288 -0.8696,15.027605 -3.4784,18.977898 -3.79512,5.810255 -10.35715,8.676154 -19.68608,8.676154 -4.74378,0 -8.8541,-0.697111 -13.12406,-2.324202 V 76.37578 Z m 24.1927,-35.633095 c -0.15811,0 -0.31571,0 -0.39476,0 h -0.87011 c -2.37113,-0.07746 -5.13803,0.541698 -7.03636,1.703549 -2.9245,1.627091 -4.42756,4.570946 -4.42756,8.75361 0,5.965168 3.00509,9.373264 8.38079,9.373264 1.66015,0 3.00458,-0.310327 4.58516,-0.774567 v -0.852524 -3.252683 c 0,-1.394221 -0.0785,-2.944356 -0.0785,-4.570447 l -0.0786,-5.499428 -0.0796,-3.950793 v -0.929981 z m -64.81903,-6.971606 c 7.19395,-1.858961 13.12354,-2.710485 19.13219,-2.710485 6.24581,0 10.75243,1.393721 13.4413,4.105206 2.52974,2.555573 3.31977,5.344015 3.31977,11.309683 v 23.392933 h -12.1754 V 46.940223 c 0,-4.569947 -1.58109,-6.274995 -5.92908,-6.274995 -1.66015,0 -3.16218,0.154914 -5.61389,0.852024 v 28.351164 h -12.17489 z m -35.57756,0.852025 c 5.37672,-2.478116 10.51526,-3.56251 16.12864,-3.56251 6.24581,0 10.35664,1.626091 12.1754,4.802317 1.0272,1.781505 1.34341,4.105207 1.34341,9.063437 v 24.244957 c -5.45577,0.774567 -12.33351,1.317264 -17.39299,1.317264 -10.19853,0 -14.78471,-3.487052 -14.78471,-11.232725 0,-8.366327 6.0877,-12.239164 21.03052,-13.478971 v -2.633529 c 0,-2.168788 -1.10676,-2.942856 -4.1904,-2.942856 -4.5061,0 -9.56609,1.239308 -14.31038,3.640966 v -9.21835 z m 19.05365,18.978398 c -8.06457,0.774568 -10.67337,2.014375 -10.67337,5.112644 0,2.323702 1.50254,3.408097 4.82283,3.408097 1.81876,0 3.4784,-0.154414 5.85054,-0.541698 z M 155.01715,31.912118 v 27.653553 c 0,9.528177 -0.71149,14.098124 -2.84596,18.048917 -1.97687,3.79638 -4.58618,6.197039 -9.96188,8.831067 L 130.9035,81.178098 c 5.37621,-2.478616 7.98501,-4.646904 9.64515,-7.979043 1.73971,-3.408096 2.2936,-7.358889 2.2936,-17.738591 V 31.912118 Z m -12.1749,-18.358745 h 12.1749 v 12.239163 h -12.1749 z m -19.36935,-0.06346 h 12.1754 v 55.217155 c -6.24581,1.161851 -10.83148,1.626592 -15.81191,1.626592 -14.86376,-5e-4 -22.611609,-6.583823 -22.611609,-19.210769 0,-12.161707 8.222679,-20.062293 20.950959,-20.062293 1.97636,0 3.47839,0.154413 5.29716,0.619154 z m 0,27.794474 c -1.42298,-0.464241 -2.6088,-0.619155 -4.11084,-0.619155 -6.16675,0 -9.72471,3.718423 -9.72471,10.224789 0,6.352451 3.39985,9.838004 9.64566,9.838004 1.34342,0 2.45069,-0.07746 4.18989,-0.309327 z" /></g><g
     id="g4414"
     transform="translate(-5.4164892,11.494365)"><path
       style="fill:none;stroke:#4f6252;stroke-width:4.35774;stroke-linecap:butt;stroke-linejoin:miter;stroke-miterlimit:4;stroke-dasharray:none;stroke-opacity:1;filter:url(#filter2177)"
       d="m 516.98236,41.306137 c 12.32506,11.019643 28.83069,17.244091 45.36311,17.106908 16.53242,-0.137182 32.93249,-6.634674 45.07299,-17.857327 3.12843,-2.891913 5.97538,-6.07498 9.06812,-9.005028 16.56735,-15.695821 40.35375,-23.4418036 62.98666,-20.511451"
       id="path1298" /><path
       id="path1428"
       style="fill:#4f6252;stroke:#4f6252;stroke-width:3.96159;stroke-linejoin:round"
       d="m 688.74439,12.14341 a 2.6959271,2.2512569 0 0 1 -2.69593,2.251257 2.6959271,2.2512569 0 0 1 -2.69593,-2.251257 2.6959271,2.2512569 0 0 1 2.69593,-2.2512572 2.6959271,2.2512569 0 0 1 2.69593,2.2512572 z" /><path
       id="path1428-5"
       style="fill:#4f6252;stroke:#4f6252;stroke-width:3.96159;stroke-linejoin:round"
       d="m 717.59259,-29.880053 a 2.6959271,2.2512569 0 0 1 -2.69592,2.251257 2.6959271,2.2512569 0 0 1 -2.69593,-2.251257 2.6959271,2.2512569 0 0 1 2.69593,-2.251257 2.6959271,2.2512569 0 0 1 2.69592,2.251257 z" /><path
       id="path1428-6"
       style="fill:#4f6252;stroke:#4f6252;stroke-width:3.96159;stroke-linejoin:round"
       d="m 735.36475,-27.280252 a 2.6959271,2.2512569 0 0 1 -2.69593,2.251256 2.6959271,2.2512569 0 0 1 -2.69592,-2.251256 2.6959271,2.2512569 0 0 1 2.69592,-2.251257 2.6959271,2.2512569 0 0 1 2.69593,2.251257 z" /><path
       id="path1428-1"
       style="fill:#4f6252;stroke:#4f6252;stroke-width:3.96159;stroke-linejoin:round"
       d="m 726.64325,44.911705 a 2.6959271,2.2512569 0 0 1 -2.69592,2.251257 2.6959271,2.2512569 0 0 1 -2.69593,-2.251257 2.6959271,2.2512569 0 0 1 2.69593,-2.251257 2.6959271,2.2512569 0 0 1 2.69592,2.251257 z" /><path
       id="path1428-15"
       style="fill:#4f6252;stroke:#4f6252;stroke-width:3.96159;stroke-linejoin:round"
       d="m 686.8852,76.191734 a 2.6959271,2.2512569 0 0 1 -2.69593,2.251257 2.6959271,2.2512569 0 0 1 -2.69593,-2.251257 2.6959271,2.2512569 0 0 1 2.69593,-2.251257 2.6959271,2.2512569 0 0 1 2.69593,2.251257 z" /><path
       id="path1428-8"
       style="fill:#4f6252;stroke:#4f6252;stroke-width:3.96159;stroke-linejoin:round"
       d="m 654.85022,-45.571617 a 2.6959271,2.2512569 0 0 1 -2.69592,2.251257 2.6959271,2.2512569 0 0 1 -2.69593,-2.251257 2.6959271,2.2512569 0 0 1 2.69593,-2.251257 2.6959271,2.2512569 0 0 1 2.69592,2.251257 z" /><path
       style="fill:none;stroke:#4f6252;stroke-width:4.35774;stroke-linecap:butt;stroke-linejoin:miter;stroke-miterlimit:4;stroke-dasharray:none;stroke-opacity:1;filter:url(#filter2197)"
       d="m 613.32767,34.698894 c 12.14027,11.850445 28.26448,19.546051 45.11317,21.531171 5.91885,0.697361 12.08916,0.679035 17.62841,-1.519999 5.28957,-2.099911 9.60902,-6.015858 14.02041,-9.611516 4.41139,-3.595657 9.27265,-7.045372 14.89953,-7.898259 5.0165,-0.760371 10.33202,0.736225 14.21489,4.002234"
       id="path1543"
       sodipodi:nodetypes="csssc" /><path
       style="fill:none;stroke:#4f6252;stroke-width:4.35774;stroke-linecap:butt;stroke-linejoin:miter;stroke-miterlimit:4;stroke-dasharray:none;stroke-opacity:1;filter:url(#filter2201)"
       d="m 610.01588,39.151692 c 2.4479,11.918939 9.19974,22.906217 18.72715,30.474687 9.52742,7.56847 21.75719,11.65998 33.92091,11.348351 4.98742,-0.127775 9.9559,-0.972937 14.70506,-2.501397"
       id="path1547"
       sodipodi:nodetypes="csc" /><path
       style="fill:none;stroke:#4f6252;stroke-width:4.35774;stroke-linecap:butt;stroke-linejoin:miter;stroke-miterlimit:4;stroke-dasharray:none;stroke-opacity:1;filter:url(#filter2185)"
       d="m 635.01147,18.793568 c 0.85476,-12.0589717 5.65069,-23.8066377 13.47963,-33.018433 7.15106,-8.414188 16.78974,-14.687525 27.37875,-17.819475 10.58901,-3.13195 22.08938,-3.110982 32.6669,0.05956"
       id="path1551" /><path
       style="fill:none;stroke:#4f6252;stroke-width:4.35774;stroke-linecap:butt;stroke-linejoin:miter;stroke-miterlimit:4;stroke-dasharray:none;stroke-opacity:1;filter:url(#filter2189)"
       d="m 653.86554,-19.642104 c 11.42053,6.393411 24.67409,9.467715 37.74298,8.754888 12.74976,-0.695421 25.2839,-4.988856 35.7823,-12.256843"
       id="path1559" /><path
       style="fill:none;stroke:#4f6252;stroke-width:4.35774;stroke-linecap:butt;stroke-linejoin:miter;stroke-miterlimit:4;stroke-dasharray:none;stroke-opacity:1;filter:url(#filter2193)"
       d="m 602.76186,44.545382 c 3.11857,-3.862144 5.69079,-8.164793 7.61635,-12.740149 3.65382,-8.681908 4.92525,-18.144243 6.36829,-27.4524932 1.44304,-9.3082506 3.14951,-18.7614778 7.55169,-27.0889428 4.60837,-8.717493 12.13251,-15.861068 21.07725,-20.011172"
       id="path1563"
       sodipodi:nodetypes="cssc" /></g></g></g>
</svg>
